<svg data-v-423bf9ae="" xmlns="http://www.w3.org/2000/svg" viewBox="0 0 1406.6665649414062 1636" class="iconAbove"><!----><!----><!----><g data-v-423bf9ae="" id="ea761ea7-be6d-48ce-ba33-b22601f88cb9" fill="white" transform="matrix(6.302521336710863,0,0,6.302521336710863,397.06225452844495,1552.558797116098)"><path d="M8.36 6.17L3.96 6.17L3.96 7.46L7.52 7.46L7.52 9.86L3.96 9.86L3.96 13.02L0.70 13.02L0.70 3.78L8.36 3.78L8.36 6.17ZM15.02 13.02L13.38 9.95L12.49 9.95L12.49 13.02L9.30 13.02L9.30 3.78L14.31 3.78L14.31 3.78Q16.16 3.78 17.10 4.56L17.10 4.56L17.10 4.56Q18.05 5.33 18.05 6.87L18.05 6.87L18.05 6.87Q18.05 8.90 16.38 9.60L16.38 9.60L18.56 13.02L15.02 13.02ZM12.49 6.10L12.49 7.81L13.65 7.81L13.65 7.81Q14.27 7.81 14.53 7.62L14.53 7.62L14.53 7.62Q14.78 7.43 14.78 6.96L14.78 6.96L14.78 6.96Q14.78 6.50 14.53 6.30L14.53 6.30L14.53 6.30Q14.27 6.10 13.65 6.10L13.65 6.10L12.49 6.10ZM22.43 10.63L27.01 10.63L27.01 13.02L19.17 13.02L19.17 3.78L26.84 3.78L26.84 6.17L22.43 6.17L22.43 7.32L25.98 7.32L25.98 9.53L22.43 9.53L22.43 10.63ZM31.95 3.64L31.95 3.64Q33.32 3.64 34.29 3.96L34.29 3.96L34.29 3.96Q35.25 4.28 36.20 5.11L36.20 5.11L34.78 7.14L34.78 7.14Q34.15 6.55 33.50 6.29L33.50 6.29L33.50 6.29Q32.84 6.03 32.05 6.03L32.05 6.03L32.05 6.03Q31.56 6.03 31.26 6.18L31.26 6.18L31.26 6.18Q30.97 6.33 30.97 6.57L30.97 6.57L30.97 6.57Q30.97 6.72 31.25 6.80L31.25 6.80L31.25 6.80Q31.53 6.89 32.23 7.01L32.23 7.01L32.23 7.01Q34.26 7.38 35.15 8.11L35.15 8.11L35.15 8.11Q36.04 8.85 36.04 10.18L36.04 10.18L36.04 10.18Q36.04 11.13 35.49 11.80L35.49 11.80L35.49 11.80Q34.94 12.47 34.01 12.82L34.01 12.82L34.01 12.82Q33.07 13.16 31.91 13.16L31.91 13.16L31.91 13.16Q30.27 13.16 29.29 12.85L29.29 12.85L29.29 12.85Q28.31 12.54 27.37 11.86L27.37 11.86L28.77 9.65L28.77 9.65Q29.36 10.22 30.06 10.49L30.06 10.49L30.06 10.49Q30.76 10.77 31.67 10.77L31.67 10.77L31.67 10.77Q32.69 10.77 32.69 10.35L32.69 10.35L32.69 10.35Q32.69 10.12 32.37 10.01L32.37 10.01L32.37 10.01Q32.05 9.90 31.32 9.77L31.32 9.77L31.32 9.77Q30.25 9.58 29.50 9.32L29.50 9.32L29.50 9.32Q28.76 9.07 28.19 8.47L28.19 8.47L28.19 8.47Q27.62 7.87 27.62 6.82L27.62 6.82L27.62 6.82Q27.62 5.87 28.13 5.15L28.13 5.15L28.13 5.15Q28.63 4.44 29.60 4.04L29.60 4.04L29.60 4.04Q30.58 3.64 31.95 3.64L31.95 3.64ZM42.77 3.78L46.03 3.78L46.03 13.02L42.77 13.02L42.77 9.58L40.24 9.58L40.24 13.02L36.97 13.02L36.97 3.78L40.24 3.78L40.24 7.18L42.77 7.18L42.77 3.78ZM54.95 3.64L54.95 3.64Q56.32 3.64 57.29 3.96L57.29 3.96L57.29 3.96Q58.25 4.28 59.21 5.11L59.21 5.11L57.78 7.14L57.78 7.14Q57.15 6.55 56.50 6.29L56.50 6.29L56.50 6.29Q55.85 6.03 55.05 6.03L55.05 6.03L55.05 6.03Q54.56 6.03 54.26 6.18L54.26 6.18L54.26 6.18Q53.97 6.33 53.97 6.57L53.97 6.57L53.97 6.57Q53.97 6.72 54.25 6.80L54.25 6.80L54.25 6.80Q54.53 6.89 55.23 7.01L55.23 7.01L55.23 7.01Q57.26 7.38 58.15 8.11L58.15 8.11L58.15 8.11Q59.04 8.85 59.04 10.18L59.04 10.18L59.04 10.18Q59.04 11.13 58.49 11.80L58.49 11.80L58.49 11.80Q57.95 12.47 57.01 12.82L57.01 12.82L57.01 12.82Q56.07 13.16 54.91 13.16L54.91 13.16L54.91 13.16Q53.27 13.16 52.29 12.85L52.29 12.85L52.29 12.85Q51.31 12.54 50.37 11.86L50.37 11.86L51.77 9.65L51.77 9.65Q52.36 10.22 53.06 10.49L53.06 10.49L53.06 10.49Q53.76 10.77 54.67 10.77L54.67 10.77L54.67 10.77Q55.69 10.77 55.69 10.35L55.69 10.35L55.69 10.35Q55.69 10.12 55.37 10.01L55.37 10.01L55.37 10.01Q55.05 9.90 54.32 9.77L54.32 9.77L54.32 9.77Q53.26 9.58 52.51 9.32L52.51 9.32L52.51 9.32Q51.76 9.07 51.19 8.47L51.19 8.47L51.19 8.47Q50.62 7.87 50.62 6.82L50.62 6.82L50.62 6.82Q50.62 5.87 51.13 5.15L51.13 5.15L51.13 5.15Q51.63 4.44 52.60 4.04L52.60 4.04L52.60 4.04Q53.58 3.64 54.95 3.64L54.95 3.64ZM68.60 3.78L68.60 6.17L65.72 6.17L65.72 13.02L62.45 13.02L62.45 6.17L59.56 6.17L59.56 3.78L68.60 3.78ZM74.10 13.02L73.68 11.26L71.19 11.26L70.76 13.02L67.51 13.02L70.50 3.78L74.42 3.78L77.43 13.02L74.10 13.02ZM71.68 9.23L73.21 9.23L72.46 6.15L72.42 6.15L72.06 7.71L71.68 9.23ZM83.72 13.02L82.08 9.95L81.19 9.95L81.19 13.02L77.99 13.02L77.99 3.78L83.01 3.78L83.01 3.78Q84.85 3.78 85.80 4.56L85.80 4.56L85.80 4.56Q86.74 5.33 86.74 6.87L86.74 6.87L86.74 6.87Q86.74 8.90 85.08 9.60L85.08 9.60L87.26 13.02L83.72 13.02ZM81.19 6.10L81.19 7.81L82.35 7.81L82.35 7.81Q82.96 7.81 83.22 7.62L83.22 7.62L83.22 7.62Q83.48 7.43 83.48 6.96L83.48 6.96L83.48 6.96Q83.48 6.50 83.22 6.30L83.22 6.30L83.22 6.30Q82.96 6.10 82.35 6.10L82.35 6.10L81.19 6.10ZM96.49 3.78L96.49 6.17L93.60 6.17L93.60 13.02L90.34 13.02L90.34 6.17L87.44 6.17L87.44 3.78L96.49 3.78Z"></path></g><!----><g data-v-423bf9ae="" id="cbee9d83-a518-4857-9c84-4e68d5b6eb5f" transform="matrix(4.166666666666667,0,0,4.166666666666667,-362.4666061401367,-285.16666666666674)" stroke="none" fill="white"><path d="M387.3 87.3l-75-18.8-36.9 98.3-11.5-79.5 10.8-18.8h-37.5l13.6 18.8-14.6 78.3-36.5-97.1-75 18.8L87.2 256l37.5 18.8 37.5-93.8v112.5H181v150h56.2l18.8-150 18.7 150H331v-150h18.8V181l37.5 93.8 37.5-18.8z"></path></g><!----></svg>